<svg xmlns="http://www.w3.org/2000/svg" viewBox="3350 3380 7050 2470" style="shape-rendering:geometricPrecision;text-rendering:geometricPrecision;image-rendering:optimizeQuality;fill-rule:evenodd;clip-rule:evenodd">
 <defs>
  <style type="text/css">
   .fil0{fill:black;fill-rule:nonzero}
   .fil1{fill:#5A7A5F;fill-rule:nonzero}
   .fil2{fill:#5A7A5F;fill-rule:nonzero}
  </style>
 </defs>
 <g>
  <polygon class="fil0" points="6063.26,4187.49 5896.63,4187.49 5896.63,4748.15 5850.63,4748.15 5850.63,4187.49 5684.87,4187.49 5684.87,4140.63 6063.26,4140.63 "/>
  <path class="fil0" d="M6440.79 4447.86c106.75,0 166.63,-44.26 166.63,-130.18 0,-86.8 -59.88,-130.19 -166.63,-130.19l-123.24 0 0 260.37 123.24 0zm194.41 300.28l-158.83 -256.02c-11.29,0.87 -23.44,1.74 -35.58,1.74l-123.24 0 0 254.28 -46 0 0 -607.5 169.24 0c132.78,0 212.62,65.08 212.62,177.04 0,85.06 -46.86,143.2 -128.44,165.77l164.03 264.69 -53.8 0z"/>
  <path class="fil0" d="M7301.7 4140.63l0 380.99c0,143.19 -83.32,237.8 -215.23,237.8 -132.8,0 -215.23,-94.61 -215.23,-237.8l0 -380.99 46 0 0 380.99c0,117.17 62.48,190.94 169.24,190.94 106.74,0 168.37,-73.78 168.37,-190.94l0 -380.99 46.86 0z"/>
  <polygon class="fil0" points="7871.02,4702.14 7871.02,4748.13 7536.02,4748.13 7536.02,4140.63 7863.21,4140.63 7863.21,4187.49 7582.02,4187.49 7582.02,4410.53 7843.24,4410.53 7843.24,4456.53 7582.02,4456.53 7582.02,4702.14 "/>
  <path class="fil0" d="M8598.28 4571.96c0,94.59 -67.69,187.45 -226.51,187.45 -113.7,0 -215.25,-46.86 -244.74,-147.53l113.69 -35.58c8.68,34.72 45.13,79.85 130.18,79.85 60.74,0 109.36,-23.44 109.36,-75.51 0,-60.76 -68.57,-65.08 -164.92,-88.52 -122.35,-30.38 -163.15,-91.99 -163.15,-176.18 0,-114.56 87.64,-185.74 214.35,-185.74 101.55,0 181.4,50.35 207.44,143.21l-114.56 27.76c-6.94,-32.12 -38.19,-67.69 -98.93,-67.69 -50.35,0 -92.01,26.03 -92.01,74.64 0,68.55 77.24,78.09 133.67,91.13 144.06,32.98 196.13,74.64 196.13,172.7z"/>
  <polygon class="fil0" points="9146.78,4249.98 9000.96,4249.98 9000.96,4748.14 8882.93,4748.14 8882.93,4249.98 8737.13,4249.98 8737.13,4140.62 9146.78,4140.62 "/>
  <path class="fil0" d="M9605 4522.49l-89.38 -262.96 -89.39 262.96 178.77 0zm35.61 105.02l-249.95 0 -40.79 120.64 -124.99 0 218.7 -607.52 144.08 0 218.7 607.52 -124.96 0 -40.79 -120.64z"/>
  <path class="fil0" d="M10088.42 4427.89l92.85 0c60.76,0 105.89,-27.78 105.89,-88.52 0,-54.69 -39.92,-89.39 -105.89,-89.39l-92.85 0 0 177.91zm227.39 320.26l-124.99 -218.7 -9.55 0 -92.85 0 0 218.7 -117.17 0 0 -607.52 210.02 0c136.26,0 226.51,83.31 226.51,198.75 0,76.38 -40.79,135.39 -106.74,165.76l149.27 243.02 -134.5 0z"/>
  <path class="fil0" d="M6146.98 5022.48c0,30.38 16.34,57.41 45.25,57.41 28.91,0 45.27,-26.63 45.27,-58.69 0,-28.28 -14.68,-57.61 -45.06,-57.61 -30.38,0 -45.46,28.08 -45.46,58.89zm109.8 -2.11c0,48.4 -29.55,74.39 -65.59,74.39 -37.5,0 -63.49,-29.12 -63.49,-71.86 0,-44.84 27.66,-74.18 65.38,-74.18 38.76,0 63.7,29.53 63.7,71.65z"/>
  <path class="fil0" d="M6418.24 4951.23l0 83.81c0,31.44 14.04,44.86 32.89,44.86 20.75,0 34.36,-13.84 34.36,-44.86l0 -83.81 18.45 0 0 82.56c0,43.37 -22.83,61 -53.43,61 -28.93,0 -50.72,-16.36 -50.72,-60.36l0 -83.19 18.45 0z"/>
  <polygon class="fil0" points="6681.95,4966.74 6639,4966.74 6639,4951.23 6743.56,4951.23 6743.56,4966.74 6700.38,4966.74 6700.38,5092.46 6681.95,5092.46 "/>
  <path class="fil0" d="M6897.03 5078.21c4.6,0.64 11.31,0.85 18.43,0.85 39.18,0 60.16,-21.8 60.16,-59.93 0.19,-33.32 -18.66,-54.49 -57.22,-54.49 -9.42,0 -16.55,0.85 -21.37,1.89l0 111.69zm-18.23 -124.87c11.11,-1.89 24.3,-3.15 38.77,-3.15 26.19,0 44.85,6.29 57.2,17.6 12.78,11.54 20.11,27.87 20.11,50.7 0,23.06 -7.33,41.91 -20.33,54.9 -13.4,13.21 -35.19,20.32 -62.63,20.32 -13.21,0 -23.9,-0.62 -33.12,-1.68l0 -138.7z"/>
  <path class="fil0" d="M7148.8 5022.48c0,30.38 16.34,57.41 45.27,57.41 28.91,0 45.25,-26.63 45.25,-58.69 0,-28.28 -14.66,-57.61 -45.04,-57.61 -30.4,0 -45.48,28.08 -45.48,58.89zm109.81 -2.11c0,48.4 -29.55,74.39 -65.6,74.39 -37.5,0 -63.48,-29.12 -63.48,-71.86 0,-44.84 27.67,-74.18 65.38,-74.18 38.77,0 63.7,29.53 63.7,71.65z"/>
  <path class="fil0" d="M7412.72 5022.48c0,30.38 16.34,57.41 45.25,57.41 28.91,0 45.27,-26.63 45.27,-58.69 0,-28.28 -14.68,-57.61 -45.06,-57.61 -30.38,0 -45.46,28.08 -45.46,58.89zm109.8 -2.11c0,48.4 -29.55,74.39 -65.59,74.39 -37.5,0 -63.49,-29.12 -63.49,-71.86 0,-44.84 27.66,-74.18 65.38,-74.18 38.76,0 63.7,29.53 63.7,71.65z"/>
  <path class="fil0" d="M7683.97 5017.45l18.66 0c19.47,0 31.85,-10.69 31.85,-26.82 0,-18.22 -13.21,-26.2 -32.49,-26.2 -8.8,0 -14.89,0.64 -18.02,1.49l0 51.54zm-18.23 -64.34c9.22,-1.67 22.64,-2.92 35,-2.92 19.49,0 32.27,3.77 40.86,11.52 6.91,6.27 11.1,15.92 11.1,27.02 0,18.45 -11.74,30.8 -26.4,35.83l0 0.63c10.69,3.77 17.17,13.83 20.54,28.49 4.6,19.7 7.96,33.31 10.89,38.77l-18.85 0c-2.3,-4.2 -5.45,-16.13 -9.22,-33.74 -4.17,-19.48 -11.93,-26.82 -28.48,-27.46l-17.19 0 0 61.2 -18.23 0 0 -139.35z"/>
  <path class="fil0" d="M8059.65 5070.24c8.16,5.24 19.9,9.22 32.47,9.22 18.66,0 29.55,-9.84 29.55,-24.09 0,-12.99 -7.54,-20.75 -26.61,-27.87 -23.05,-8.37 -37.3,-20.54 -37.3,-40.22 0,-22 18.24,-38.35 45.69,-38.35 14.23,0 24.93,3.35 31,6.93l-5.03 14.87c-4.39,-2.74 -13.83,-6.71 -26.61,-6.71 -19.28,0 -26.61,11.52 -26.61,21.16 0,13.2 8.59,19.69 28.08,27.25 23.88,9.2 35.83,20.73 35.83,41.48 0,21.8 -15.93,40.86 -49.25,40.86 -13.61,0 -28.48,-4.2 -36.03,-9.22l4.81 -15.3z"/>
  <path class="fil0" d="M8295.68 5022.48c0,30.38 16.34,57.41 45.27,57.41 28.91,0 45.25,-26.63 45.25,-58.69 0,-28.28 -14.68,-57.61 -45.06,-57.61 -30.38,0 -45.46,28.08 -45.46,58.89zm109.8 -2.11c0,48.4 -29.55,74.39 -65.59,74.39 -37.5,0 -63.49,-29.12 -63.49,-71.86 0,-44.84 27.65,-74.18 65.38,-74.18 38.76,0 63.7,29.53 63.7,71.65z"/>
  <polygon class="fil0" points="8548.49,4951.23 8566.94,4951.23 8566.94,5077.16 8627.29,5077.16 8627.29,5092.46 8548.49,5092.46 "/>
  <path class="fil0" d="M8777.82 4951.23l0 83.81c0,31.44 14.02,44.86 32.9,44.86 20.75,0 34.36,-13.84 34.36,-44.86l0 -83.81 18.43 0 0 82.56c0,43.37 -22.84,61 -53.43,61 -28.91,0 -50.69,-16.36 -50.69,-60.36l0 -83.19 18.43 0z"/>
  <polygon class="fil0" points="9041.53,4966.74 8998.56,4966.74 8998.56,4951.23 9103.13,4951.23 9103.13,4966.74 9059.96,4966.74 9059.96,5092.46 9041.53,5092.46 "/>
  <polygon class="fil0" points="9256.6,5092.46 9238.16,5092.46 9238.16,4951.24 9256.6,4951.24 "/>
  <path class="fil0" d="M9418.86 5022.48c0,30.38 16.34,57.41 45.25,57.41 28.93,0 45.27,-26.63 45.27,-58.69 0,-28.28 -14.68,-57.61 -45.06,-57.61 -30.38,0 -45.47,28.08 -45.47,58.89zm109.79 -2.11c0,48.4 -29.53,74.39 -65.58,74.39 -37.5,0 -63.47,-29.12 -63.47,-71.86 0,-44.84 27.64,-74.18 65.35,-74.18 38.77,0 63.7,29.53 63.7,71.65z"/>
  <path class="fil0" d="M9671.91 5092.46l0 -141.23 20.11 0 45.06 71.46c10.25,16.55 18.64,31.42 25.14,45.87l0.62 -0.2c-1.68,-18.85 -2.11,-36.04 -2.11,-58.05l0 -59.08 17.19 0 0 141.23 -18.43 0 -44.85 -71.67c-9.84,-15.72 -19.26,-31.83 -26.18,-47.15l-0.64 0.21c1.04,17.81 1.26,34.79 1.26,58.24l0 60.35 -17.17 0z"/>
  <path class="fil0" d="M9927.01 5070.24c8.16,5.24 19.9,9.22 32.47,9.22 18.64,0 29.55,-9.84 29.55,-24.09 0,-12.99 -7.54,-20.75 -26.61,-27.87 -23.05,-8.37 -37.3,-20.54 -37.3,-40.22 0,-22 18.24,-38.35 45.7,-38.35 14.23,0 24.93,3.35 31,6.93l-5.03 14.87c-4.39,-2.74 -13.85,-6.71 -26.61,-6.71 -19.28,0 -26.61,11.52 -26.61,21.16 0,13.2 8.59,19.69 28.08,27.25 23.89,9.2 35.84,20.73 35.84,41.48 0,21.8 -15.93,40.86 -49.26,40.86 -13.61,0 -28.48,-4.2 -36.03,-9.22l4.81 -15.3z"/>
  <polygon class="fil1" points="4521.13,3479.43 4268.78,4311.52 3450.31,4284.24 4118.71,4795.8 3825.44,5566.51 4432.47,5068.62 4111.89,5191.37 4330.16,4713.94 3866.37,4447.94 4405.19,4482.06 4521.13,4106.92 "/>
  <polygon class="fil2" points="4698.46,4833.31 4795.07,5150.46 5527.15,5150.46 4978.12,4840.12 5445.33,4840.12 4886.04,4267.2 5227.06,4267.2 4609.8,3479.43 4601.28,5745.56 4698.46,5648.36 "/>
 </g>
</svg>
